# xmcd
#
# Track frame offsets:
#        150
#        19403
#        41785
#        64122
#        90889
#        107982
#        130879
#        149599
#        176283
#        217406
#        234356
#
# Disc length: 3518 seconds
#
# Revision: 0
# Processed by: cddbd v1.5.1PL0 Copyright (c) Steve Scherf et al.
# Submitted via: ExactAudioCopy v0.95a5
#
DISCID=a00dbc0b
DTITLE=Various Artist - New Orleans New Funk
DYEAR=2003
DGENRE=Funk
TTITLE0=Pass It!(Papa Grows Funk)
TTITLE1=blues foe ben(Stanton Moore)
TTITLE2=Bon ton roulet(Papa mali&the instagators)
TTITLE3=Everyday(Smilijn' myron)
TTITLE4=Another Love Song(New Orleans Juice)
TTITLE5=we can be lovers(Cronk)
TTITLE6=Spilled milk(Iris may tango)
TTITLE7=Ho cake(mofro)
TTITLE8=gus(idletime)
TTITLE9=Muddlin(The Shreep)
TTITLE10=Tchfuncta/On that day(New Orleans Nightcrawlers)
EXTD=
EXTT0=
EXTT1=
EXTT2=
EXTT3=
EXTT4=
EXTT5=
EXTT6=
EXTT7=
EXTT8=
EXTT9=
EXTT10=
PLAYORDER=
